<svg xmlns="http://www.w3.org/2000/svg" width="72" height="72" viewBox="0 0 72 72">
    <defs>
        <linearGradient id="a" x1="0%" y1="59.689%" y2="59.689%">
            <stop offset="0%" stop-color="#FA4A6F"/>
            <stop offset="100%" stop-color="#594454"/>
        </linearGradient>
    </defs>
    <path fill="url(#a)" fill-rule="nonzero" d="M27.807 49.55v-1.087H16.602V37.132l-.217-.207c-.405-.39-.504-1.101-.232-1.669.246-.523.898-1.076 1.693-1.432l.33-.148.005-.553c0-.434.015-.567.08-.627.093-.098.217-.098.345-.01.079.06.094.144.109.632l.02.563.463.237c.815.415 1.323.874 1.565 1.412.153.34.138.904-.04 1.264-.138.277-.419.538-.65.593-.11.03-.114.049-.114.543v.513h7.552v-1.101l-.192-.168c-.307-.256-.425-.553-.425-1.051 0-.346.025-.464.118-.662.257-.513.968-1.106 1.758-1.461l.32-.143v-.544c0-.533.006-.548.129-.631.118-.075.143-.075.262-.01.123.069.128.089.153.656l.024.583.306.138c.168.08.316.128.331.109.015-.015.03-.08.03-.139 0-.251.202-.651.434-.873.133-.119.286-.247.346-.277.108-.06.108-.064.108-1.585v-1.53h1.19l-.158-.227c-.237-.35-.35-.721-.375-1.284-.025-.42-.01-.558.074-.84.158-.518.43-.932.948-1.456.552-.553 1.15-.962 2.033-1.392l.627-.306.005-.913c0-1.018.03-1.136.291-1.136.242 0 .252.044.252 1.066v.953l.607.297c1.462.72 2.38 1.505 2.849 2.434.266.538.32.834.256 1.46-.05.5-.192.904-.434 1.235l-.08.109h1.492v3.239l.153.148c.232.217.4.587.43.938l.024.306.484-.252.488-.252v-.484c0-.261.02-.533.05-.602a.246.246 0 0 1 .395-.104c.088.08.098.158.098.627v.539l.331.148c.775.345 1.461.918 1.718 1.427.36.706.123 1.574-.504 1.876l-.256.123-.005.509v.503h7.552v-1.126l-.168-.128a1.249 1.249 0 0 1-.3-.4c-.178-.355-.193-.918-.04-1.259.237-.528.75-.997 1.515-1.387l.415-.212.02-.588c.014-.513.024-.592.108-.657.129-.088.252-.088.346.01.064.06.079.188.079.603v.528l.38.173c.849.38 1.496.918 1.747 1.456.262.553.173 1.269-.207 1.65a1.173 1.173 0 0 1-.37.251l-.168.06v11.246H44.196v2.172H27.807V49.55zm15.846-.272v-.815H28.35v1.629h15.302v-.814zm-24.237-6.69v-5.332h-2.271V47.92h2.271v-5.332zm1.53 4.394v-.938h2.122v1.876H24.401v-1.876h2.073v1.876h1.037v-6.616H19.96v6.616h.987v-.938zm1.58.271v-.666h-1.037V47.92h1.036v-.667zm3.405 0v-.666h-.987V47.92h.987v-.667zm4.344-4.665v-5.332h-2.221V47.92h2.221v-5.332zm13.378 0v-5.332h-2.271V47.92h2.271v-5.332zm1.58 4.394v-.938h2.073v1.876h1.332v-1.876h2.074v1.876h1.036v-6.616h-7.552v6.616h1.036v-.938zm1.53.271v-.666h-.988V47.92h.988v-.667zm3.406 0v-.666h-.988V47.92h.988v-.667zm4.393-4.665v-5.332H52.29V47.92h2.271v-5.332zM33.78 47.13v-.543h-2.715v1.086h2.715v-.543zm3.406 0v-.543h-2.665v1.086h2.665v-.543zm3.406 0v-.543h-2.665v1.086h2.665v-.543zm-6.812-4.592v-3.505h-2.715V46.044h2.715v-3.506zm3.406 0v-3.505h-2.665V46.044h2.665v-3.506zm3.406 0v-3.505h-2.665V46.044h2.665v-3.506zM22.18 39.774v-.988h-2.221v1.975h2.22v-.987zm2.517 0v-.988h-1.974v1.975h1.974v-.987zm2.814 0v-.988H25.24v1.975h2.271v-.987zm18.955 0v-.988h-2.27v1.975h2.27v-.987zm2.469 0v-.988h-1.926v1.975h1.926v-.987zm2.813 0v-.988h-2.27v1.975h2.27v-.987zm-10.909-2.06l-.005-.532-.207-.129a1 1 0 0 1-.356-.395c-.128-.237-.148-.316-.148-.686 0-.365.02-.454.134-.666.079-.134.197-.321.266-.405l.133-.163h-9.305l.154.192c.251.316.4.687.4 1.003 0 .32-.104.676-.262.893-.129.168-.435.356-.662.405l-.163.035v.978H40.84v-.53zm-20.905-1.07c.202-.09.32-.257.375-.558.109-.583-.365-1.166-1.367-1.679-.43-.222-.46-.227-.642-.173-.32.099-.997.509-1.279.775-.335.326-.469.588-.469.924 0 .325.124.567.351.69.148.08.301.09 1.515.09 1.052 0 1.383-.015 1.516-.07zm10.939-.045c.335-.222.434-.676.237-1.091-.104-.222-.632-.77-.74-.77-.03 0-.085-.035-.114-.074-.03-.04-.252-.168-.494-.292l-.434-.217-.282.129c-1.096.498-1.688 1.145-1.614 1.752.03.292.128.45.34.578.149.094.257.099 1.546.099 1.362 0 1.392 0 1.555-.114zm13.357.015c.213-.128.306-.282.34-.558.085-.592-.414-1.17-1.436-1.679l-.439-.217-.306.133c-.706.321-1.353.855-1.52 1.26-.168.394-.055.834.261 1.046.163.114.193.114 1.555.114 1.289 0 1.397-.005 1.545-.1zm10.87.01c.227-.124.35-.366.35-.691 0-.553-.404-1.013-1.332-1.511-.232-.124-.474-.227-.533-.227-.163 0-.919.4-1.254.661-.301.242-.533.548-.627.82-.064.207-.01.573.113.765.163.247.287.267 1.758.272 1.224 0 1.377-.01 1.525-.09zm-14.261-2.612c0-.227-.143-.543-.301-.691-.173-.158-.513-.296-.884-.36-.222-.04-1.45-.05-3.998-.04-3.648.015-3.683.015-3.998.123-.499.168-.731.44-.815.943l-.035.208H40.84v-.183zm-.592-2.78v-1.135h-8.491v2.271h8.491v-1.136zm-1.649-1.851c.271-.168.533-.518.617-.83.03-.113.06-.41.064-.656.005-.435 0-.46-.212-.879-.395-.805-1.234-1.51-2.582-2.187l-.637-.32-.602.295c-1.303.642-2.246 1.432-2.63 2.207-.188.375-.193.41-.193.884 0 .37.024.563.093.745.134.356.4.657.692.795l.251.119 2.449-.01 2.448-.015.242-.148zM20.941 43.919c.02-.779.055-.916.327-1.2.124-.137.139-.137.728-.137.588 0 .603 0 .727.137.272.284.307.421.327 1.2l.02.72h-2.148l.02-.72zm1.574-.161c0-.216-.03-.402-.074-.49-.074-.142-.09-.147-.45-.147h-.372l-.074.171a1.76 1.76 0 0 0-.07.49v.319h1.04v-.343zm1.897.171c0-.77.029-.911.264-1.186l.137-.161h1.196l.157.161c.26.27.304.441.304 1.21v.687h-2.058v-.71zm1.519-.21c0-.54-.05-.598-.5-.598-.446 0-.475.039-.48.578v.402h.98v-.382zm19.241.21c0-.784.035-.921.284-1.186l.147-.161H46.77l.157.161c.26.27.303.441.303 1.21v.687h-2.058v-.71zm1.52-.21c0-.54-.05-.598-.51-.598-.333 0-.363.01-.412.122-.034.069-.059.29-.059.49v.368h.98v-.382zm1.97.235c0-.77.044-.941.304-1.21l.157-.162h1.166l.147.161c.25.265.284.402.284 1.186v.71h-2.058v-.685zm1.52-.255c-.006-.54-.035-.578-.48-.578-.452 0-.5.059-.5.598v.382h.98v-.402zM33.45 36.63v-.76h.537v1.52h-.537v-.76zm2.058 0v-.76h.537v1.52h-.537v-.76zm2.416 0v-.76h.537v1.52h-.537v-.76z"/>
</svg>
