<svg xmlns="http://www.w3.org/2000/svg" width="72" height="72" viewBox="0 0 72 72">
    <defs>
        <linearGradient id="a" x1="0%" y1="59.689%" y2="59.689%">
            <stop offset="0%" stop-color="#FA4A6F"/>
            <stop offset="100%" stop-color="#594454"/>
        </linearGradient>
    </defs>
    <path fill="url(#a)" fill-rule="nonzero" d="M35.796 18a.204.204 0 0 0-.204.204v2.257h-.812l-.004-.614a.204.204 0 0 0-.205-.202h-.001a.204.204 0 0 0-.203.205l.007.817v1.007h-.21a.204.204 0 0 0 0 .408h.13l-.774 2.449h-.377v-.613a.204.204 0 0 0-.408 0V26.98c0 .008.004.014.004.022l-.811 2.57c-.002.006 0 .013-.002.02-.003.014-.008.026-.008.04v11.633h-8.98v-.396h.216a.204.204 0 0 0 0-.408h-.266l-1.09-3.265h.127a.204.204 0 0 0 0-.408h-.613V34.95a.204.204 0 0 0-.408 0v.612h-2.041v-.612a.204.204 0 0 0-.408 0V36.787h-.609a.204.204 0 0 0 0 .409h.118l-1.09 3.265h-.258a.204.204 0 0 0 0 .408h.2v11.825h-.612a.204.204 0 0 0 0 .408h39.184a.204.204 0 0 0 0-.408h-.612V40.869h.204a.204.204 0 0 0 0-.408h-.258l-1.089-3.265h.126a.204.204 0 0 0 0-.408h-.613V34.95a.204.204 0 0 0-.408 0v.612h-2.04v-.612a.204.204 0 0 0-.41 0V36.787h-.609a.204.204 0 0 0 0 .409h.119l-1.087 3.253h-.261a.204.204 0 0 0 0 .408h.204v.408h-8.98V29.633c0-.015-.005-.027-.008-.04 0-.008.001-.015-.001-.022l-.812-2.569c.001-.008.004-.015.004-.022V23.918a.204.204 0 0 0-.408 0v.613h-.376l-.774-2.45h.13a.204.204 0 0 0 0-.407h-.198v-1.011l-.006-.816a.204.204 0 0 0-.205-.202h-.001a.204.204 0 0 0-.203.205l.005.61H36v-2.256a.204.204 0 0 0-.204-.204zm-1.014 2.87h.402v.804h-.402v-.805zm.81 0H36v.804h-.408v-.805zm.816 0h.415v.804h-.415v-.805zm-1.69 1.224h2.157l2.316 7.335h-1.15v-1.02a.204.204 0 0 0-.203-.205h-.708l-1.141-3.13a.205.205 0 0 0-.19-.135h-.002a.204.204 0 0 0-.19.13l-1.21 3.135h-.641a.204.204 0 0 0-.204.204v1.02h-1.15l2.315-7.334zm-1.575 2.845h.249l-.25.785V24.939zm5.058 0h.248V25.724l-.248-.785zm-2.41.784l1.004 2.755.002.002a.2.2 0 0 0 .066.086l.02.014a.198.198 0 0 0 .103.032h.647v1.02c0 .113.091.204.204.204h1.428v.037a.605.605 0 0 0-.204-.037c-.157 0-.3.061-.408.16a.608.608 0 0 0-1.02.452v.408a.204.204 0 0 0 .408 0v-.408c0-.112.092-.204.204-.204.112 0 .204.092.204.204v.408a.204.204 0 0 0 .408 0v-.408c0-.112.092-.204.204-.204.112 0 .204.092.204.204v2.653H32.327v-2.653c0-.112.091-.204.204-.204.112 0 .204.092.204.204v.408a.204.204 0 0 0 .408 0v-.408c0-.112.092-.204.204-.204.112 0 .204.092.204.204v.408a.204.204 0 0 0 .408 0v-.408a.613.613 0 0 0-.604-.611h.4a.204.204 0 0 0 .204-.204v-1.02h.579l.003-.002c.01 0 .02-.004.03-.006a.2.2 0 0 0 .156-.122v-.002l1.064-2.758zm-3.464 4.114h.2a.609.609 0 0 0-.2.036v-.036zm.212 0h.8a.608.608 0 0 0-.4.158.608.608 0 0 0-.4-.158zm3.257 0a1.43 1.43 0 0 0-1.429 1.428 1.43 1.43 0 0 0 1.429 1.429 1.43 1.43 0 0 0 1.428-1.429 1.43 1.43 0 0 0-1.428-1.428zm0 .408a1.021 1.021 0 0 1 0 2.04 1.021 1.021 0 0 1 0-2.04zm0 .408a.204.204 0 0 0-.204.204v.408c0 .113.091.204.204.204l.011-.001.01.001h.591a.204.204 0 0 0 0-.408H36v-.204a.204.204 0 0 0-.204-.204zm-3.47 2.857h2.041v.612c0 .078.045.148.114.183l.703.352v.69c0 .113.091.204.204.204h.204v.816a.204.204 0 0 0 0 .409H36a.204.204 0 0 0 0-.409v-.816h.204a.204.204 0 0 0 .204-.204v-.69l.704-.352a.204.204 0 0 0 .112-.183v-.612h2.041v4.898h-1.632v-.816a.817.817 0 0 0-1.633 0v.816h-.408v-.816a.817.817 0 0 0-1.633 0v.816h-1.632V33.51zm2.45.001h2.04v.486l-.703.351a.205.205 0 0 0-.113.183v.612h-.408v-.612a.204.204 0 0 0-.113-.183l-.703-.351v-.486zm-15.912 2.46h.401v.805h-.401v-.805zm.81 0h.408v.805h-.409v-.805zm.816 0h.414v.805h-.414v-.805zm30.207 0h.403v.805h-.403v-.805zm.81 0h.409v.805h-.408v-.805zm.816 0h.415v.805h-.415v-.805zm-17.547 1.213c.225 0 .408.183.408.408v2.857h-.817v-2.857c0-.225.183-.408.409-.408zm2.04 0c.226 0 .408.183.408.408v2.857h-.816v-2.857c0-.225.183-.408.408-.408zm-18.421.012h2.975l1.088 3.265h-1.264l-1.165-1.176a.203.203 0 0 0-.144-.06h-.001a.203.203 0 0 0-.144.06l-1.171 1.176H17.304l1.09-3.265zm31.833 0h2.975l1.089 3.265H53.027l-1.164-1.176a.203.203 0 0 0-.29 0l-1.17 1.176h-.669c-.02-.006-.039-.012-.06-.012h-.531l1.085-3.253zm-17.901 1.62h1.632v1.633h-.204a.204.204 0 0 0-.204.204v.816c0 .113.091.205.204.205h4.082a.204.204 0 0 0 .204-.205v-.816a.204.204 0 0 0-.204-.204h-.204v-1.633h1.632v7.755h-1.632v-3.06a1.017 1.017 0 1 0-1.837-.606 1.017 1.017 0 0 0-1.837.605v3.061h-1.632V38.816zm3.265 0H36v.409h-.408v-.409zm0 .817H36v.816h-.408v-.816zm-15.709.086l1.08 1.09c.039.038.091.06.145.06h1.423v.434a.605.605 0 0 0-.204-.038c-.158 0-.3.062-.409.16a.608.608 0 0 0-1.02.453v.408a.204.204 0 0 0 .408 0v-.408c0-.113.092-.204.204-.204.112 0 .204.091.204.204v.408a.204.204 0 0 0 .408 0v-.408a.205.205 0 0 1 .408 0V52.694h-.836V51.26a1.839 1.839 0 0 0-1.837-1.836 1.839 1.839 0 0 0-1.837 1.836v1.433h-.796V41.878a.205.205 0 0 1 .408 0v.408a.204.204 0 0 0 .409 0v-.408c0-.113.092-.204.204-.204.112 0 .204.091.204.204v.408a.204.204 0 0 0 .408 0v-.408a.608.608 0 1 0-1.02-.453.608.608 0 0 0-.408-.16.605.605 0 0 0-.205.038v-.434H18.653a.205.205 0 0 0 .145-.06l1.085-1.09zm31.834 0l1.08 1.09c.038.038.09.06.145.06H54.367v.434a.605.605 0 0 0-.204-.038c-.157 0-.3.062-.408.16a.608.608 0 0 0-1.02.453v.408a.204.204 0 0 0 .408 0v-.408c0-.113.092-.204.204-.204.112 0 .204.091.204.204v.408a.204.204 0 0 0 .408 0v-.408c0-.113.092-.204.204-.204.113 0 .204.091.204.204V52.694h-.837V51.26a1.839 1.839 0 0 0-1.836-1.836 1.839 1.839 0 0 0-1.837 1.836v1.433h-.795V41.878c0-.113.092-.204.204-.204.112 0 .204.091.204.204v.408a.204.204 0 0 0 .408 0v-.408c0-.113.092-.204.204-.204.113 0 .205.091.205.204v.408a.204.204 0 0 0 .408 0v-.408a.608.608 0 1 0-1.02-.453.608.608 0 0 0-.409-.16.605.605 0 0 0-.204.038v-.434h1.425a.203.203 0 0 0 .145-.06l1.085-1.09zm-31.84.73a.613.613 0 0 0-.612.612v1.225c0 .112.092.204.204.204h.817a.204.204 0 0 0 .204-.204V41.06a.613.613 0 0 0-.612-.612zm31.837 0a.613.613 0 0 0-.612.612v1.225c0 .112.091.204.204.204h.816a.204.204 0 0 0 .205-.204V41.06a.613.613 0 0 0-.613-.612zm-31.836.408c.112 0 .204.092.204.204v1.02h-.409v-1.02c0-.112.092-.204.205-.204zm14.081 0h.408v.408h-.408v-.408zm.817 0h.408v.408h-.408v-.408zm.816 0H36v.408h-.408v-.408zm.816 0h.408v.408h-.408v-.408zm.816 0h.409v.408h-.409v-.408zm14.49 0c.113 0 .204.092.204.204v1.02h-.408v-1.02c0-.112.092-.204.204-.204zm-28.775.817h8.98v1.632h-8.98v-1.632zm16.734 0h8.98V43.306h-8.98v-1.632zm-4.693 1.224c.337 0 .612.275.612.612v3.061h-1.225v-3.06c0-.338.275-.613.613-.613zm1.632 0c.338 0 .612.275.612.612v3.061H36v-3.06c0-.338.275-.613.612-.613zm-16.734.812c-.838 0-1.539.567-1.758 1.336a.2.2 0 0 0-.024.077 1.815 1.815 0 0 0-.054.424v2.857c0 .112.09.204.203.204h3.265a.204.204 0 0 0 .204-.204v-2.857c0-.148-.022-.29-.055-.429a.194.194 0 0 0-.022-.072 1.833 1.833 0 0 0-1.76-1.336zm31.837 0c-.838 0-1.539.567-1.759 1.336a.198.198 0 0 0-.023.077 1.815 1.815 0 0 0-.055.424v2.857c0 .113.092.204.204.204h3.266a.204.204 0 0 0 .204-.204v-2.857c0-.148-.022-.29-.055-.428a.213.213 0 0 0-.023-.073 1.832 1.832 0 0 0-1.759-1.336zm-28.776.004h8.98v3.266h-.409v-1.735a.715.715 0 0 0-1.224-.498.715.715 0 0 0-1.224.498v1.735h-.409v-1.735a.715.715 0 0 0-1.224-.498.715.715 0 0 0-1.224.498v1.735h-.41v-1.735a.715.715 0 0 0-1.224-.498.715.715 0 0 0-1.224.498v1.735h-.408v-3.266zm16.734 0h8.98v3.266h-.408v-1.735a.715.715 0 0 0-1.225-.498.715.715 0 0 0-1.224.498v1.735h-.408v-1.735a.715.715 0 0 0-1.225-.498.715.715 0 0 0-1.224.498v1.735h-.408v-1.735a.715.715 0 0 0-1.225-.498.715.715 0 0 0-1.224.498v1.735h-.409v-3.266zm-19.795.405c.569 0 1.058.337 1.288.82H18.59c.23-.484.718-.82 1.288-.82zm31.836 0c.57 0 1.06.337 1.289.82h-2.576c.23-.484.718-.82 1.287-.82zm-27.653.82c.169 0 .306.137.306.306v1.735h-.612v-1.735c0-.169.138-.306.306-.306zm1.02 0c.17 0 .307.137.307.306v1.735h-.612v-1.735c0-.169.137-.306.306-.306zm1.837 0c.169 0 .306.137.306.306v1.735h-.612v-1.735c0-.169.138-.306.306-.306zm1.02 0c.17 0 .307.137.307.306v1.735h-.612v-1.735c0-.169.137-.306.306-.306zm1.838 0c.168 0 .306.137.306.306v1.735h-.613v-1.735c0-.169.138-.306.307-.306zm1.02 0c.168 0 .306.137.306.306v1.735h-.612v-1.735c0-.169.137-.306.306-.306zm10 0c.168 0 .306.137.306.306v1.735h-.612v-1.735c0-.169.137-.306.306-.306zm1.02 0c.169 0 .306.137.306.306v1.735h-.612v-1.735c0-.169.138-.306.306-.306zm1.837 0c.169 0 .306.137.306.306v1.735h-.612v-1.735c0-.169.137-.306.306-.306zm1.02 0c.169 0 .307.137.307.306v1.735h-.613v-1.735c0-.169.138-.306.306-.306zm1.837 0c.169 0 .306.137.306.306v1.735h-.612v-1.735c0-.169.138-.306.306-.306zm1.02 0c.17 0 .307.137.307.306v1.735h-.613v-1.735c0-.169.138-.306.307-.306zm-29.06.408h.387v.408h-.408v-.208c0-.068.011-.134.02-.2zm.795 0h.408v.408h-.408v-.408zm.817 0h.408v.408h-.408v-.408zm.816 0h.388c.01.066.02.132.02.2v.208h-.408v-.408zm29.408 0h.388v.408h-.408v-.208c0-.068.011-.134.02-.2zm.796 0h.408v.408h-.408v-.408zm.816 0h.409v.408h-.409v-.408zm.817 0h.388c.01.066.02.132.02.2v.208h-.408v-.408zm-34.286.816h.408V48.2h-.408v-2.037zm.816 0h.408V48.2h-.408v-2.037zm.817 0h.408V48.2h-.408v-2.037zm.816 0h.408V48.2h-.408v-2.037zm29.388 0h.408V48.2h-.408v-2.037zm.816 0h.408V48.2h-.408v-2.037zm.816 0h.409V48.2h-.409v-2.037zm.817 0h.408V48.2h-.408v-2.037zm-20.408.817H39.265v5.714H38.02v-2.657a2.248 2.248 0 0 0-2.245-2.245 2.248 2.248 0 0 0-2.245 2.245v2.657h-1.203V46.98zm-9.388.408H31.918v5.306h-.408v-1.635c0-.675-.55-1.225-1.224-1.225-.675 0-1.225.55-1.225 1.225v1.635h-.408v-1.635c0-.675-.55-1.225-1.224-1.225-.676 0-1.225.55-1.225 1.225v1.635h-.408v-1.635a1.226 1.226 0 0 0-2.449 0v1.635h-.408v-5.306zm16.734 0H48.653v5.306h-.408v-1.635a1.226 1.226 0 0 0-2.449 0v1.635h-.408v-1.635a1.226 1.226 0 0 0-2.449 0v1.635h-.408v-1.635a1.226 1.226 0 0 0-2.449 0v1.635h-.409v-5.306zm-16.122.404a.204.204 0 0 0-.204.204v1.02c0 .113.091.205.204.205h2.04a.204.204 0 0 0 .205-.205v-1.02a.204.204 0 0 0-.204-.204H23.55zm2.857 0a.204.204 0 0 0-.204.204v1.02c0 .113.092.205.204.205h2.041a.204.204 0 0 0 .204-.205v-1.02a.204.204 0 0 0-.204-.204h-2.04zm2.857 0a.204.204 0 0 0-.204.204v1.02c0 .113.092.205.204.205h2.041a.204.204 0 0 0 .204-.205v-1.02a.204.204 0 0 0-.204-.204h-2.04zm11.02 0a.204.204 0 0 0-.203.204v1.02c0 .113.091.205.204.205h2.04a.204.204 0 0 0 .205-.205v-1.02a.204.204 0 0 0-.204-.204h-2.041zm2.858 0a.204.204 0 0 0-.204.204v1.02c0 .113.091.205.204.205h2.04a.204.204 0 0 0 .205-.205v-1.02a.204.204 0 0 0-.204-.204h-2.041zm2.857 0a.204.204 0 0 0-.204.204v1.02c0 .113.091.205.204.205h2.04a.204.204 0 0 0 .205-.205v-1.02a.204.204 0 0 0-.204-.204H46zm-22.245.408h.612v.612h-.612V48.2zm1.02 0h.613v.612h-.612V48.2zm1.837 0h.612v.612h-.612V48.2zm1.02 0h.613v.612h-.612V48.2zm1.837 0h.613v.612h-.613V48.2zm1.02 0h.613v.612h-.612V48.2zm5.286 0c1.013 0 1.837.824 1.837 1.837v2.653h-3.674v-2.653c0-1.013.825-1.837 1.837-1.837zm4.715 0h.612v.612h-.612V48.2zm1.02 0h.612v.612h-.612V48.2zm1.837 0h.612v.612h-.612V48.2zm1.02 0h.613v.612h-.613V48.2zm1.837 0h.612v.612h-.612V48.2zm1.02 0h.613v.612h-.613V48.2zm-27.367 1.633c.788 0 1.428.64 1.428 1.428v1.429h-2.857V51.26c0-.787.641-1.428 1.429-1.428zm31.837 0c.787 0 1.428.64 1.428 1.428v1.429h-2.857V51.26c0-.787.64-1.428 1.429-1.428zm-27.123.41c.45 0 .817.366.817.816v1.635h-1.633v-1.635c0-.45.366-.816.816-.816zm2.858 0c.45 0 .816.366.816.816v1.635h-1.633v-1.635c0-.45.366-.816.817-.816zm2.857 0c.45 0 .816.366.816.816v1.635h-1.633v-1.635c0-.45.367-.816.817-.816zm11.02 0c.45 0 .816.366.816.816v1.635H40.49v-1.635c0-.45.366-.816.816-.816zm2.857 0c.45 0 .817.366.817.816v1.635h-1.633v-1.635c0-.45.366-.816.816-.816zm2.857 0c.45 0 .817.366.817.816v1.635h-1.633v-1.635c0-.45.366-.816.816-.816z"/>
</svg>
