<svg xmlns="http://www.w3.org/2000/svg" width="72" height="72" viewBox="0 0 72 72">
    <defs>
        <linearGradient id="a" x1="0%" y1="59.689%" y2="59.689%">
            <stop offset="0%" stop-color="#FA4A6F"/>
            <stop offset="100%" stop-color="#594454"/>
        </linearGradient>
    </defs>
    <path fill="url(#a)" fill-rule="nonzero" d="M53.123 35.125h-2.488c-.437-7.39-6.37-13.324-13.76-13.762v-2.487a.876.876 0 0 0-1.752 0v2.487c-7.39.438-13.322 6.371-13.76 13.762h-2.487a.875.875 0 1 0 0 1.75h2.488c.437 7.39 6.37 13.323 13.76 13.762v2.487a.876.876 0 0 0 1.751 0v-2.487c7.39-.438 13.324-6.371 13.761-13.762h2.488a.876.876 0 1 0-.001-1.75zM36.888 48.857v-4.462a.889.889 0 0 0-1.776 0v4.462c-6.401-.438-11.53-5.568-11.97-11.97h4.462a.888.888 0 1 0 0-1.775h-4.46c.437-6.401 5.567-11.53 11.968-11.97v4.462a.889.889 0 0 0 1.776 0v-4.461c6.401.438 11.53 5.568 11.97 11.97h-4.463a.888.888 0 0 0 0 1.775h4.462c-.438 6.4-5.568 11.53-11.969 11.97z"/>
</svg>
