<svg xmlns="http://www.w3.org/2000/svg" width="72" height="72" viewBox="0 0 72 72">
    <defs>
        <linearGradient id="a" x1="0%" y1="59.689%" y2="59.689%">
            <stop offset="0%" stop-color="#FA4A6F"/>
            <stop offset="100%" stop-color="#594454"/>
        </linearGradient>
    </defs>
    <path fill="url(#a)" fill-rule="nonzero" d="M33.75 16a.313.313 0 0 0-.313.313v.969a2.18 2.18 0 0 0-1.843 1.843H30a.313.313 0 0 0-.313.313v.937H26.25a.313.313 0 0 0-.313.313V26h-1.562a.313.313 0 0 0-.313.313v1.562h-.937a.313.313 0 0 0-.313.313v2.187H21.25a.314.314 0 0 0-.28.453l1.843 3.684V41H22.5a.313.313 0 0 0 0 .625h.313v3.75h-.898a.314.314 0 0 0-.26.486l1.157 1.736V53.5H22.5a.313.313 0 0 0 0 .625h.313v1.25h-2.5a.313.313 0 0 0 0 .625h31.875a.313.313 0 0 0 0-.625h-2.5v-1.25H50a.313.313 0 0 0 0-.625h-.313v-5.842l1.198-1.797a.312.312 0 0 0-.26-.486h-.938v-3.75H50A.313.313 0 0 0 50 41h-.313v-6.49l1.843-3.683a.312.312 0 0 0-.28-.452h-1.563v-2.188a.313.313 0 0 0-.312-.312h-.938v-1.563a.313.313 0 0 0-.312-.312h-1.563v-5.313a.313.313 0 0 0-.312-.312h-3.438v-.938a.313.313 0 0 0-.312-.312h-1.594c-.006-.042-.004-.087-.012-.128a2.186 2.186 0 0 0-1.831-1.715v-.97A.313.313 0 0 0 38.75 16h-5zm.313.625h4.374v.625h-4.374v-.625zm-.313 1.25h5c.754 0 1.387.538 1.532 1.25h-8.063a1.565 1.565 0 0 1 1.531-1.25zm-3.438 1.875h11.875v.625H30.313v-.625zM26.563 21h19.375v5H26.564v-5zm5.938 1.25a.313.313 0 0 0-.313.313v1.875c0 .172.14.312.313.312h.938v.313c0 .172.14.312.312.312h5c.172 0 .313-.14.313-.313v-.312H40c.172 0 .313-.14.313-.313v-1.875A.313.313 0 0 0 40 22.25h-7.5zm-2.5.013a1.564 1.564 0 0 0 0 3.125c.862 0 1.563-.7 1.563-1.562 0-.862-.701-1.563-1.563-1.563zm12.5 0a1.564 1.564 0 0 0 0 3.125c.862 0 1.563-.7 1.563-1.562 0-.862-.701-1.563-1.563-1.563zm-9.688.612h6.876v1.25h-.938a.313.313 0 0 0-.313.313v.312h-4.374v-.313a.313.313 0 0 0-.313-.312h-.938v-1.25zM30 22.888a.939.939 0 0 1 0 1.875.939.939 0 0 1 0-1.875zm12.5 0a.939.939 0 0 1 0 1.875.939.939 0 0 1 0-1.875zm-17.813 3.737h23.125v1.25H24.689v-1.25zm-1.25 1.875h25.625v1.875H23.439V28.5zM21.756 31h28.99l-.313.625H22.068L21.755 31zm.625 1.25h.433v.864l-.433-.864zm1.058 0h1.25v1.875h-1.25V32.25zm1.875 0h1.25v1.875h-1.25V32.25zm1.875 0h1.25v1.875h-1.25V32.25zm1.875 0h1.25v1.875h-1.25V32.25zm1.875 0h1.25v1.875h-1.25V32.25zm1.875 0h1.25v1.875h-1.25V32.25zm1.874 0h1.25v1.875h-1.25V32.25zm1.876 0h1.25v1.875h-1.25V32.25zm1.874 0h1.25v1.875h-1.25V32.25zm1.876 0h1.25v1.875h-1.25V32.25zm1.874 0h1.25v1.875h-1.25V32.25zm1.876 0h1.25v1.875h-1.25V32.25zm1.874 0h1.25v1.875h-1.25V32.25zm1.876 0h1.25v1.875h-1.25V32.25zm1.874 0h.433l-.432.864v-.864zm-26.25 2.5h6.875V41h-.625v-2.188a.313.313 0 0 0-.312-.312h-5a.313.313 0 0 0-.313.313V41h-.625v-6.25zm7.5 0h10.625V36h-4.687a.313.313 0 0 0-.313.313V38.5h-.624v-2.188a.313.313 0 0 0-.313-.312h-4.688v-1.25zm11.25 0h6.876V41h-.626v-2.188a.313.313 0 0 0-.312-.312h-5a.313.313 0 0 0-.313.313V41h-.624v-6.25zm-15.312.625c-.69 0-1.25.56-1.25 1.25s.56 1.25 1.25 1.25 1.25-.56 1.25-1.25-.56-1.25-1.25-1.25zm18.75 0c-.69 0-1.25.56-1.25 1.25s.56 1.25 1.25 1.25 1.25-.56 1.25-1.25-.56-1.25-1.25-1.25zM26.875 36a.625.625 0 1 1 0 1.25.625.625 0 0 1 0-1.25zm18.75 0a.625.625 0 1 1 0 1.25.625.625 0 0 1 0-1.25zm-14.688.625h4.375v.104A4.687 4.687 0 0 0 31.578 41h-.64v-4.375zm6.25 0h4.376V41h-.64a4.687 4.687 0 0 0-3.736-4.271v-.104zm-1.874.741v.655A3.426 3.426 0 0 0 32.84 41h-.639a4.064 4.064 0 0 1 3.11-3.634zm1.874 0A4.064 4.064 0 0 1 40.297 41h-.638a3.425 3.425 0 0 0-2.471-2.979v-.655zm-1.874 1.31v.136c0 .173.14.313.312.313h1.25c.172 0 .313-.14.313-.313v-.136A2.802 2.802 0 0 1 39.035 41h-.286a.313.313 0 0 0 0 .625h.313v3.75h-.313a.313.313 0 0 0 0 .625h.313v9.375h-5.626V46h.313a.313.313 0 0 0 0-.625h-.313v-3.75h.313a.313.313 0 0 0 0-.625h-.286a2.803 2.803 0 0 1 1.849-2.324zm-10.626.449h.938v.625h-.938v-.625zm1.563 0h1.25v.625h-1.25v-.625zm1.875 0h.938v.625h-.938v-.625zm15.313 0h.937v.625h-.938v-.625zm1.562 0h1.25v.625H45v-.625zm1.875 0h.938v.625h-.938v-.625zm-22.188 1.25h4.375V41h-4.375v-.625zm18.75 0h4.376V41h-4.376v-.625zm-20 1.25h.625v.625h-.625v-.625zm1.25 0h4.375v.625h-4.375v-.625zm5 0h.625v.625h-.625v-.625zm1.25 0h1.875v3.75h-1.875v-3.75zm8.75 0h1.876v3.75h-1.876v-3.75zm2.5 0h.626v.625h-.626v-.625zm1.25 0h4.376v.625h-4.376v-.625zm5 0h.626v.625h-.626v-.625zm-25 1.25h.625v2.5h-.625v-2.5zm1.25 0h.625v1.563c0 .172.14.312.313.312h2.5c.172 0 .313-.14.313-.313v-1.562h.625v2.5h-4.375v-2.5zm1.25 0h1.875v1.25h-1.875v-1.25zm3.75 0h.625v2.5h-.625v-2.5zm12.5 0h.626v2.5h-.626v-2.5zm1.25 0h.626v1.563c0 .172.14.312.312.312h2.5c.172 0 .313-.14.313-.313v-1.562h.624v2.5h-4.374v-2.5zm1.25 0h1.876v1.25h-1.876v-1.25zm3.75 0h.626v2.5h-.626v-2.5zM22.5 46h8.793l-.834 1.25H23.33L22.5 46zm9.543 0h.77v9.375h-1.874v-7.717L32.041 46zm7.645 0h.811l1.065 1.597v7.778h-1.876V46zm1.562 0h8.793l-.834 1.25H42.08L41.25 46zm-17.812 1.875h.625V53.5h-.625v-5.625zm1.25 0h4.375V53.5h-4.375v-5.625zm5 0h.625V53.5h-.625v-5.625zm12.5 0h.626V53.5h-.626v-5.625zm1.25 0h4.376V53.5h-4.376v-5.625zm5 0h.626V53.5h-.626v-5.625zm-25 6.25h.625v1.25h-.625v-1.25zm1.25 0h.625v1.25h-.625v-1.25zm1.25 0h1.875v1.25h-1.875v-1.25zm2.5 0h.625v1.25h-.625v-1.25zm1.25 0h.625v1.25h-.625v-1.25zm12.5 0h.626v1.25h-.626v-1.25zm1.25 0h.626v1.25h-.626v-1.25zm1.25 0h1.876v1.25h-1.876v-1.25zm2.5 0h.626v1.25h-.626v-1.25zm1.25 0h.626v1.25h-.626v-1.25z"/>
</svg>
