<svg xmlns="http://www.w3.org/2000/svg" width="72" height="72" viewBox="0 0 72 72">
    <defs>
        <linearGradient id="a" x1="0%" y1="59.689%" y2="59.689%">
            <stop offset="0%" stop-color="#FA4A6F"/>
            <stop offset="100%" stop-color="#594454"/>
        </linearGradient>
    </defs>
    <path fill="url(#a)" fill-rule="nonzero" d="M55.665 50.367h-1.547V37.082h.928a.34.34 0 0 0 .31-.19l.618-1.898c.062-.127 0-.19-.061-.316-.062-.064-.124-.127-.248-.127h-1.547v-2.53h.31c.185 0 .31-.127.31-.317v-1.898c0-.19-.125-.316-.31-.316h-8.97v-2.214c0-.19-.124-.317-.31-.317h-.31V22.53c0-.569-.37-1.075-.927-1.201v-1.013c0-.19-.124-.316-.31-.316-.185 0-.309.127-.309.316v1.013c-.557.126-.928.632-.928 1.202v2.53H30.61V22.53c0-.569-.371-1.075-.928-1.201v-1.013c0-.19-.124-.316-.31-.316-.185 0-.309.127-.309.316v1.013c-.556.126-.927.632-.927 1.202v4.428h-.31c-.185 0-.31.127-.31.317v2.214h-8.97c-.185 0-.309.126-.309.316v1.898c0 .19.124.316.31.316h.309v2.531h-1.547c-.123 0-.185.063-.247.127-.062.063-.062.19-.062.316l.619 1.898a.34.34 0 0 0 .309.19h.928v13.285h-1.547c-.185 0-.309.127-.309.317s.124.316.31.316h38.355c.186 0 .31-.127.31-.316 0-.19-.124-.317-.31-.317zM54.8 36.45h-9.342v-1.265h9.775l-.433 1.265zm-23.57-8.857h10.517v3.796H31.229v-3.796zm13.61 0v3.796h-2.475v-3.796h2.475zM34.322 32.02v2.531h-1.237v-2.53h1.237zm.619 0h1.237v2.531H34.94v-2.53zm1.856 0h1.237v2.531h-1.237v-2.53zm1.855 0h1.238v2.531h-1.238v-2.53zm1.856 0h1.238v2.531h-1.238v-2.53zm1.856 2.531v-2.53h2.475v2.53h-2.475zm-9.898-2.53v2.53h-1.237v-2.53h1.237zm-1.856 2.53h-2.474v-2.53h2.474v2.53zm0 .633v1.265h-2.474v-1.265h2.474zm11.754 0h2.475v1.265h-2.475v-1.265zM53.5 34.55h-8.043v-2.53H53.5v2.53zm.618-4.429v1.266h-8.661v-1.266h8.661zM42.983 26.96v-3.163h1.237v3.163h-1.237zm.619-5.061c.37 0 .618.253.618.633v.632h-1.237v-.632c0-.38.247-.633.619-.633zm-1.238 3.796v1.265H30.61v-1.265h11.754zm-12.991-3.796c.371 0 .618.253.618.633v.632h-1.237v-.632c0-.38.248-.633.619-.633zm-.619 1.898h1.237v3.163h-1.237v-3.163zm-.31 3.796h2.167v3.796h-2.475V27.592h.309zm-9.588 2.53h8.66v1.266h-8.66v-1.266zm.619 1.898h8.042v2.531h-8.042v-2.53zm-1.733 3.164h9.775v1.265h-9.342l-.433-1.265zm1.733 1.898h8.042v13.285h-.928v-7.212c0-1.708-.928-3.226-2.475-3.986-.185-.126-.433-.126-.68 0-1.485.76-2.413 2.278-2.475 3.986v7.212h-1.546V37.082h.062zm2.783 13.285h-.618v-6.959h4.33v6.96h-.618v-4.113c0-1.645-1.361-2.15-1.423-2.214h-.186c-.062 0-1.485.57-1.485 2.214v4.112zm-.618-7.591c.124-1.33.866-2.531 2.103-3.164h.124c1.175.633 1.98 1.772 2.103 3.164h-4.33zm1.237 7.591v-4.112c0-.949.68-1.392.928-1.582.31.19.928.633.928 1.582v4.112h-1.856zm5.259 0V37.082h2.474v13.285h-2.474zm4.33 0v-6.896c0-1.898.928-3.669 2.536-4.681l1.485-1.012 1.485.949c1.608 1.012 2.536 2.783 2.536 4.744v6.96h-8.042v-.064zm5.815-12.147l-1.67-1.075c-.124-.063-.248-.063-.31 0l-1.67 1.075c-1.732 1.14-2.784 3.1-2.784 5.251v6.896h-.618V35.184h10.517v15.183h-.619v-6.959a6.131 6.131 0 0 0-2.846-5.188zm4.083 12.147V37.082h2.475v13.285h-2.475zm4.64-6.959h4.33v6.96h-.618v-4.113c0-1.645-1.361-2.15-1.423-2.214h-.186c-.061 0-1.484.57-1.484 2.214v4.112h-.619v-6.959zm0-.632c.124-1.33.866-2.531 2.103-3.164h.124c1.176.633 1.98 1.772 2.104 3.164h-4.33zm1.237 7.591v-4.112c0-.949.68-1.392.928-1.582.31.19.928.633.928 1.582v4.112h-1.856zm3.712 0v-7.212c0-1.708-.928-3.226-2.474-4.049-.186-.126-.433-.126-.68 0a4.59 4.59 0 0 0-2.475 4.05v7.211h-.928V37.082h8.042v13.285h-1.485z"/>
</svg>
